<mxfile host="app.diagrams.net" agent="Mozilla/5.0 (Windows NT 10.0; Win64; x64) AppleWebKit/537.36 (KHTML, like Gecko) Chrome/130.0.0.0 Safari/537.36" version="24.7.17">
  <diagram name="Trang-1" id="th3KW1degMkCB6hDtFAh">
    <mxGraphModel dx="808" dy="876" grid="0" gridSize="10" guides="1" tooltips="1" connect="1" arrows="1" fold="1" page="0" pageScale="1" pageWidth="827" pageHeight="1169" math="0" shadow="0">
      <root>
        <mxCell id="0" />
        <mxCell id="1" parent="0" />
        <mxCell id="pH7NjbxZBT_kl_eQ1KcJ-7" style="edgeStyle=none;curved=1;rounded=0;orthogonalLoop=1;jettySize=auto;html=1;exitX=0;exitY=0.75;exitDx=0;exitDy=0;entryX=0.5;entryY=0;entryDx=0;entryDy=0;fontSize=12;startSize=8;endSize=8;" edge="1" parent="1" source="pH7NjbxZBT_kl_eQ1KcJ-1" target="pH7NjbxZBT_kl_eQ1KcJ-2">
          <mxGeometry relative="1" as="geometry" />
        </mxCell>
        <mxCell id="pH7NjbxZBT_kl_eQ1KcJ-8" value="&lt;font style=&quot;font-size: 20px;&quot;&gt;b&lt;/font&gt;" style="edgeLabel;html=1;align=center;verticalAlign=middle;resizable=0;points=[];fontSize=12;" vertex="1" connectable="0" parent="pH7NjbxZBT_kl_eQ1KcJ-7">
          <mxGeometry x="-0.1321" y="-1" relative="1" as="geometry">
            <mxPoint as="offset" />
          </mxGeometry>
        </mxCell>
        <mxCell id="pH7NjbxZBT_kl_eQ1KcJ-10" style="edgeStyle=none;curved=1;rounded=0;orthogonalLoop=1;jettySize=auto;html=1;exitX=0;exitY=1;exitDx=0;exitDy=0;entryX=1;entryY=0;entryDx=0;entryDy=0;fontSize=12;startSize=8;endSize=8;" edge="1" parent="1" source="pH7NjbxZBT_kl_eQ1KcJ-1" target="pH7NjbxZBT_kl_eQ1KcJ-2">
          <mxGeometry relative="1" as="geometry" />
        </mxCell>
        <mxCell id="pH7NjbxZBT_kl_eQ1KcJ-11" value="&lt;font style=&quot;font-size: 20px;&quot;&gt;a&lt;/font&gt;" style="edgeLabel;html=1;align=center;verticalAlign=middle;resizable=0;points=[];fontSize=12;" vertex="1" connectable="0" parent="pH7NjbxZBT_kl_eQ1KcJ-10">
          <mxGeometry x="0.0029" y="-1" relative="1" as="geometry">
            <mxPoint as="offset" />
          </mxGeometry>
        </mxCell>
        <mxCell id="pH7NjbxZBT_kl_eQ1KcJ-12" style="edgeStyle=none;curved=1;rounded=0;orthogonalLoop=1;jettySize=auto;html=1;exitX=0.25;exitY=1;exitDx=0;exitDy=0;entryX=0;entryY=0;entryDx=0;entryDy=0;fontSize=12;startSize=8;endSize=8;" edge="1" parent="1" source="pH7NjbxZBT_kl_eQ1KcJ-1" target="pH7NjbxZBT_kl_eQ1KcJ-3">
          <mxGeometry relative="1" as="geometry" />
        </mxCell>
        <mxCell id="pH7NjbxZBT_kl_eQ1KcJ-13" value="&lt;font style=&quot;font-size: 20px;&quot;&gt;a&lt;/font&gt;" style="edgeLabel;html=1;align=center;verticalAlign=middle;resizable=0;points=[];fontSize=12;" vertex="1" connectable="0" parent="pH7NjbxZBT_kl_eQ1KcJ-12">
          <mxGeometry x="0.0271" y="1" relative="1" as="geometry">
            <mxPoint as="offset" />
          </mxGeometry>
        </mxCell>
        <mxCell id="pH7NjbxZBT_kl_eQ1KcJ-16" style="edgeStyle=none;curved=1;rounded=0;orthogonalLoop=1;jettySize=auto;html=1;exitX=1;exitY=1;exitDx=0;exitDy=0;entryX=0.5;entryY=0;entryDx=0;entryDy=0;fontSize=12;startSize=8;endSize=8;" edge="1" parent="1" source="pH7NjbxZBT_kl_eQ1KcJ-1" target="pH7NjbxZBT_kl_eQ1KcJ-4">
          <mxGeometry relative="1" as="geometry" />
        </mxCell>
        <mxCell id="pH7NjbxZBT_kl_eQ1KcJ-17" value="&lt;font style=&quot;font-size: 20px;&quot;&gt;c&lt;/font&gt;" style="edgeLabel;html=1;align=center;verticalAlign=middle;resizable=0;points=[];fontSize=12;" vertex="1" connectable="0" parent="pH7NjbxZBT_kl_eQ1KcJ-16">
          <mxGeometry x="0.083" y="3" relative="1" as="geometry">
            <mxPoint x="-1" as="offset" />
          </mxGeometry>
        </mxCell>
        <mxCell id="pH7NjbxZBT_kl_eQ1KcJ-21" value="&lt;font style=&quot;font-size: 20px;&quot;&gt;a&lt;/font&gt;" style="edgeStyle=none;curved=1;rounded=0;orthogonalLoop=1;jettySize=auto;html=1;exitX=1;exitY=0.75;exitDx=0;exitDy=0;entryX=0;entryY=0;entryDx=0;entryDy=0;fontSize=12;startSize=8;endSize=8;" edge="1" parent="1" source="pH7NjbxZBT_kl_eQ1KcJ-1" target="pH7NjbxZBT_kl_eQ1KcJ-19">
          <mxGeometry relative="1" as="geometry" />
        </mxCell>
        <mxCell id="pH7NjbxZBT_kl_eQ1KcJ-22" value="&lt;font style=&quot;font-size: 20px;&quot;&gt;b&lt;/font&gt;" style="edgeStyle=none;curved=1;rounded=0;orthogonalLoop=1;jettySize=auto;html=1;exitX=1;exitY=0.5;exitDx=0;exitDy=0;entryX=0.5;entryY=0;entryDx=0;entryDy=0;fontSize=12;startSize=8;endSize=8;" edge="1" parent="1" source="pH7NjbxZBT_kl_eQ1KcJ-1" target="pH7NjbxZBT_kl_eQ1KcJ-19">
          <mxGeometry relative="1" as="geometry" />
        </mxCell>
        <mxCell id="pH7NjbxZBT_kl_eQ1KcJ-23" value="&lt;font style=&quot;font-size: 20px;&quot;&gt;e&lt;/font&gt;" style="edgeStyle=none;curved=1;rounded=0;orthogonalLoop=1;jettySize=auto;html=1;exitX=1;exitY=0.25;exitDx=0;exitDy=0;entryX=0;entryY=0;entryDx=0;entryDy=0;fontSize=12;startSize=8;endSize=8;" edge="1" parent="1" source="pH7NjbxZBT_kl_eQ1KcJ-1" target="pH7NjbxZBT_kl_eQ1KcJ-20">
          <mxGeometry relative="1" as="geometry" />
        </mxCell>
        <mxCell id="pH7NjbxZBT_kl_eQ1KcJ-1" value="" style="rounded=0;whiteSpace=wrap;html=1;" vertex="1" parent="1">
          <mxGeometry x="145" y="-12" width="120" height="60" as="geometry" />
        </mxCell>
        <mxCell id="pH7NjbxZBT_kl_eQ1KcJ-26" style="edgeStyle=none;curved=1;rounded=0;orthogonalLoop=1;jettySize=auto;html=1;exitX=0.5;exitY=1;exitDx=0;exitDy=0;entryX=0;entryY=0;entryDx=0;entryDy=0;fontSize=12;startSize=8;endSize=8;" edge="1" parent="1" source="pH7NjbxZBT_kl_eQ1KcJ-2" target="pH7NjbxZBT_kl_eQ1KcJ-25">
          <mxGeometry relative="1" as="geometry" />
        </mxCell>
        <mxCell id="pH7NjbxZBT_kl_eQ1KcJ-2" value="&lt;font style=&quot;font-size: 20px;&quot;&gt;+&lt;/font&gt;" style="ellipse;whiteSpace=wrap;html=1;aspect=fixed;" vertex="1" parent="1">
          <mxGeometry x="30" y="136" width="80" height="80" as="geometry" />
        </mxCell>
        <mxCell id="pH7NjbxZBT_kl_eQ1KcJ-18" style="edgeStyle=none;curved=1;rounded=0;orthogonalLoop=1;jettySize=auto;html=1;exitX=1;exitY=0.5;exitDx=0;exitDy=0;entryX=0;entryY=0.5;entryDx=0;entryDy=0;fontSize=12;startSize=8;endSize=8;" edge="1" parent="1" source="pH7NjbxZBT_kl_eQ1KcJ-3" target="pH7NjbxZBT_kl_eQ1KcJ-4">
          <mxGeometry relative="1" as="geometry" />
        </mxCell>
        <mxCell id="pH7NjbxZBT_kl_eQ1KcJ-3" value="&lt;font style=&quot;font-size: 20px;&quot;&gt;*&lt;/font&gt;" style="ellipse;whiteSpace=wrap;html=1;aspect=fixed;" vertex="1" parent="1">
          <mxGeometry x="139" y="134" width="80" height="80" as="geometry" />
        </mxCell>
        <mxCell id="pH7NjbxZBT_kl_eQ1KcJ-27" style="edgeStyle=none;curved=1;rounded=0;orthogonalLoop=1;jettySize=auto;html=1;exitX=0.5;exitY=1;exitDx=0;exitDy=0;entryX=1;entryY=0;entryDx=0;entryDy=0;fontSize=12;startSize=8;endSize=8;" edge="1" parent="1" source="pH7NjbxZBT_kl_eQ1KcJ-4" target="pH7NjbxZBT_kl_eQ1KcJ-25">
          <mxGeometry relative="1" as="geometry" />
        </mxCell>
        <mxCell id="pH7NjbxZBT_kl_eQ1KcJ-4" value="&lt;font style=&quot;font-size: 20px;&quot;&gt;+&lt;/font&gt;" style="ellipse;whiteSpace=wrap;html=1;aspect=fixed;" vertex="1" parent="1">
          <mxGeometry x="260" y="134" width="80" height="80" as="geometry" />
        </mxCell>
        <mxCell id="pH7NjbxZBT_kl_eQ1KcJ-14" style="edgeStyle=none;curved=1;rounded=0;orthogonalLoop=1;jettySize=auto;html=1;exitX=0.5;exitY=1;exitDx=0;exitDy=0;entryX=0.679;entryY=0.084;entryDx=0;entryDy=0;entryPerimeter=0;fontSize=12;startSize=8;endSize=8;" edge="1" parent="1" source="pH7NjbxZBT_kl_eQ1KcJ-1" target="pH7NjbxZBT_kl_eQ1KcJ-3">
          <mxGeometry relative="1" as="geometry" />
        </mxCell>
        <mxCell id="pH7NjbxZBT_kl_eQ1KcJ-15" value="&lt;font style=&quot;font-size: 20px;&quot;&gt;d&lt;/font&gt;" style="edgeLabel;html=1;align=center;verticalAlign=middle;resizable=0;points=[];fontSize=12;" vertex="1" connectable="0" parent="pH7NjbxZBT_kl_eQ1KcJ-14">
          <mxGeometry x="-0.0137" relative="1" as="geometry">
            <mxPoint as="offset" />
          </mxGeometry>
        </mxCell>
        <mxCell id="pH7NjbxZBT_kl_eQ1KcJ-30" style="edgeStyle=none;curved=1;rounded=0;orthogonalLoop=1;jettySize=auto;html=1;exitX=0.5;exitY=1;exitDx=0;exitDy=0;entryX=0.5;entryY=0;entryDx=0;entryDy=0;fontSize=12;startSize=8;endSize=8;" edge="1" parent="1" source="pH7NjbxZBT_kl_eQ1KcJ-19" target="pH7NjbxZBT_kl_eQ1KcJ-28">
          <mxGeometry relative="1" as="geometry" />
        </mxCell>
        <mxCell id="pH7NjbxZBT_kl_eQ1KcJ-19" value="&lt;font style=&quot;font-size: 20px;&quot;&gt;+&lt;/font&gt;" style="ellipse;whiteSpace=wrap;html=1;aspect=fixed;" vertex="1" parent="1">
          <mxGeometry x="378" y="136" width="80" height="80" as="geometry" />
        </mxCell>
        <mxCell id="pH7NjbxZBT_kl_eQ1KcJ-24" style="edgeStyle=none;curved=1;rounded=0;orthogonalLoop=1;jettySize=auto;html=1;exitX=0;exitY=0.5;exitDx=0;exitDy=0;entryX=1;entryY=0.5;entryDx=0;entryDy=0;fontSize=12;startSize=8;endSize=8;" edge="1" parent="1" source="pH7NjbxZBT_kl_eQ1KcJ-20" target="pH7NjbxZBT_kl_eQ1KcJ-19">
          <mxGeometry relative="1" as="geometry" />
        </mxCell>
        <mxCell id="pH7NjbxZBT_kl_eQ1KcJ-20" value="&lt;font style=&quot;font-size: 20px;&quot;&gt;*&lt;/font&gt;" style="ellipse;whiteSpace=wrap;html=1;aspect=fixed;" vertex="1" parent="1">
          <mxGeometry x="509" y="136" width="80" height="80" as="geometry" />
        </mxCell>
        <mxCell id="pH7NjbxZBT_kl_eQ1KcJ-29" style="edgeStyle=none;curved=1;rounded=0;orthogonalLoop=1;jettySize=auto;html=1;exitX=1;exitY=1;exitDx=0;exitDy=0;entryX=0;entryY=0;entryDx=0;entryDy=0;fontSize=12;startSize=8;endSize=8;" edge="1" parent="1" source="pH7NjbxZBT_kl_eQ1KcJ-25" target="pH7NjbxZBT_kl_eQ1KcJ-28">
          <mxGeometry relative="1" as="geometry" />
        </mxCell>
        <mxCell id="pH7NjbxZBT_kl_eQ1KcJ-25" value="&lt;font style=&quot;font-size: 20px;&quot;&gt;*&lt;/font&gt;" style="ellipse;whiteSpace=wrap;html=1;aspect=fixed;" vertex="1" parent="1">
          <mxGeometry x="151" y="251" width="80" height="80" as="geometry" />
        </mxCell>
        <mxCell id="pH7NjbxZBT_kl_eQ1KcJ-34" style="edgeStyle=none;curved=1;rounded=0;orthogonalLoop=1;jettySize=auto;html=1;exitX=0.5;exitY=1;exitDx=0;exitDy=0;fontSize=12;startSize=8;endSize=8;" edge="1" parent="1" source="pH7NjbxZBT_kl_eQ1KcJ-28" target="pH7NjbxZBT_kl_eQ1KcJ-32">
          <mxGeometry relative="1" as="geometry" />
        </mxCell>
        <mxCell id="pH7NjbxZBT_kl_eQ1KcJ-28" value="&lt;font style=&quot;font-size: 20px;&quot;&gt;-&lt;/font&gt;" style="ellipse;whiteSpace=wrap;html=1;aspect=fixed;" vertex="1" parent="1">
          <mxGeometry x="333" y="370" width="80" height="80" as="geometry" />
        </mxCell>
        <mxCell id="pH7NjbxZBT_kl_eQ1KcJ-32" value="" style="sketch=0;outlineConnect=0;fontColor=#232F3E;gradientColor=none;fillColor=#232F3D;strokeColor=none;dashed=0;verticalLabelPosition=bottom;verticalAlign=top;align=center;html=1;fontSize=12;fontStyle=0;aspect=fixed;pointerEvents=1;shape=mxgraph.aws4.folder;" vertex="1" parent="1">
          <mxGeometry x="338" y="543" width="78" height="71" as="geometry" />
        </mxCell>
      </root>
    </mxGraphModel>
  </diagram>
</mxfile>
